<?xml version="1.0" encoding="UTF-8"?>
<svg id="Layer_1" data-name="Layer 1" xmlns="http://www.w3.org/2000/svg" xmlns:xlink="http://www.w3.org/1999/xlink" viewBox="0 0 180.49 159.66">
  <defs>
    <style>
      .cls-1 {
        fill: url(#linear-gradient-2);
      }

      .cls-2 {
        fill: #2948b8;
      }

      .cls-3 {
        fill: url(#linear-gradient);
      }
    </style>
    <linearGradient id="linear-gradient" x1="32.83" y1="-30.28" x2="132.97" y2="52.78" gradientUnits="userSpaceOnUse">
      <stop offset="0" stop-color="#01bcff"/>
      <stop offset=".16" stop-color="#0ca8fe"/>
      <stop offset=".52" stop-color="#2483fd"/>
      <stop offset=".82" stop-color="#326bfd"/>
      <stop offset="1" stop-color="#3863fd"/>
    </linearGradient>
    <linearGradient id="linear-gradient-2" x1="6.59" y1="1.35" x2="106.73" y2="84.42" xlink:href="#linear-gradient"/>
  </defs>
  <path class="cls-3" d="M178.78,18.91l-10.38,17.98c-2.51,4.35-7.16,7.03-12.18,7.03H24.27c-5.02,0-9.67-2.68-12.18-7.03L1.71,18.91C-3.14,10.51,2.92,0,12.63,0h155.24c9.71,0,15.77,10.51,10.92,18.91Z"/>
  <polygon class="cls-1" points="155.47 59.3 130.1 103.22 50.39 103.22 25.03 59.3 155.47 59.3"/>
  <path class="cls-2" d="M115.61,128.33l-14.44,25.02c-4.85,8.41-16.99,8.41-21.84,0l-28.94-50.13h50.72l14.5,25.11Z"/>
</svg>