<?xml version="1.0" encoding="UTF-8"?>
<svg id="Layer_1" data-name="Layer 1" xmlns="http://www.w3.org/2000/svg" viewBox="0 0 761.04 159.66">
  <defs>
    <style>
      .cls-1 {
        fill: #fff;
      }
    </style>
  </defs>
  <path class="cls-1" d="M167.87,0H12.63C2.92,0-3.14,10.51,1.71,18.91l10.38,17.98c2.51,4.35,7.16,7.03,12.18,7.03h131.95c5.02,0,9.67-2.68,12.18-7.03l10.38-17.98c4.85-8.41-1.21-18.91-10.92-18.91Z"/>
  <path class="cls-1" d="M50.39,103.22l28.94,50.13c4.85,8.41,16.99,8.41,21.84,0l14.44-25.02-14.5-25.11h29l25.36-43.92H25.03l25.36,43.92Z"/>
  <path class="cls-1" d="M263.85,31.97c4.96,0,8.64,1.47,13.6,4.6l7.9-14.51c-7.53-5.33-14.88-7.72-23.15-7.72-18.56,0-33.25,11.58-33.25,34.73v96.27h20.58v-73.12h27.01v-17.64h-27.01v-5.51c0-11.94,5.88-17.09,14.33-17.09Z"/>
  <path class="cls-1" d="M300.93,68.53l-.18-13.96h-18.37v90.76h20.58v-44.28c0-17.82,9.37-28.66,24.07-28.66,5.51,0,10.1,1.47,15.25,4.96l9.19-16.72c-5.51-4.96-14.15-7.9-22.97-7.9-11.39,0-20.39,4.78-27.56,15.8Z"/>
  <path class="cls-1" d="M366.34,15.61c-7.53,0-13.05,5.33-13.05,12.86s5.51,12.49,13.05,12.49,13.41-5.33,13.41-12.49c0-7.53-5.51-12.86-13.41-12.86Z"/>
  <rect class="cls-1" x="356.05" y="54.57" width="20.58" height="90.76"/>
  <path class="cls-1" d="M435.04,128.61c-16.72,0-28.11-11.58-28.11-28.66s11.58-28.66,28.11-28.66c8.08,0,15.98,3.12,21.49,8.64l12.49-13.41c-9.73-9.37-21.13-13.96-34.36-13.96-28.84,0-48.32,19.29-48.32,47.4s19.11,47.4,48.5,47.4c13.96,0,25.17-4.59,35.28-14.33l-12.68-13.78c-5.51,6.06-13.6,9.37-22.41,9.37Z"/>
  <path class="cls-1" d="M511.82,128.43c-8.45,0-12.68-5.14-12.68-14.33v-42.08h26.09v-17.45h-26.09v-25.91l-20.39,2.2v83.23c0,21.68,11.02,32.52,29.76,32.52,7.53,0,13.41-1.29,20.39-4.41l-5.7-16.54c-3.49,1.65-7.72,2.76-11.39,2.76Z"/>
  <path class="cls-1" d="M545.04,15.61c-7.53,0-13.04,5.33-13.04,12.86s5.51,12.49,13.04,12.49c7.9,0,13.41-5.33,13.41-12.49,0-7.53-5.51-12.86-13.41-12.86Z"/>
  <rect class="cls-1" x="534.75" y="54.57" width="20.58" height="90.76"/>
  <path class="cls-1" d="M613.56,52.55c-29.58,0-48.51,20.21-48.51,47.4s18.93,47.4,48.51,47.4,48.32-20.21,48.32-47.4-18.93-47.4-48.32-47.4ZM613.56,128.61c-17.09,0-27.93-12.86-27.93-28.66s10.84-28.66,27.93-28.66,27.74,12.86,27.74,28.66-10.84,28.66-27.74,28.66Z"/>
  <path class="cls-1" d="M722.28,52.73c-12.68,0-23.7,4.6-31.42,13.78l-.19-11.94h-18.38v90.76h20.58v-47.77c0-15.25,10.47-26.27,25.54-26.27,13.78,0,22.05,9.18,22.05,25.17v48.87h20.58v-50.16c0-25.91-15.43-42.44-38.77-42.44Z"/>
</svg>