<?xml version="1.0" encoding="UTF-8"?>
<svg id="Layer_1" data-name="Layer 1" xmlns="http://www.w3.org/2000/svg" xmlns:xlink="http://www.w3.org/1999/xlink" viewBox="0 0 761.04 159.66">
  <defs>
    <style>
      .cls-1 {
        fill: url(#linear-gradient-2);
      }

      .cls-2 {
        fill: #0a0146;
      }

      .cls-3 {
        fill: #2948b8;
      }

      .cls-4 {
        fill: url(#linear-gradient);
      }
    </style>
    <linearGradient id="linear-gradient" x1="32.83" y1="-30.28" x2="132.97" y2="52.78" gradientUnits="userSpaceOnUse">
      <stop offset="0" stop-color="#01bcff"/>
      <stop offset=".16" stop-color="#0ca8fe"/>
      <stop offset=".52" stop-color="#2483fd"/>
      <stop offset=".82" stop-color="#326bfd"/>
      <stop offset="1" stop-color="#3863fd"/>
    </linearGradient>
    <linearGradient id="linear-gradient-2" x1="6.59" y1="1.35" x2="106.73" y2="84.42" xlink:href="#linear-gradient"/>
  </defs>
  <g>
    <path class="cls-4" d="M178.78,18.91l-10.38,17.98c-2.51,4.35-7.16,7.03-12.18,7.03H24.27c-5.02,0-9.67-2.68-12.18-7.03L1.71,18.91C-3.14,10.51,2.92,0,12.63,0h155.24c9.71,0,15.77,10.51,10.92,18.91Z"/>
    <polygon class="cls-1" points="155.47 59.3 130.1 103.22 50.39 103.22 25.03 59.3 155.47 59.3"/>
    <path class="cls-3" d="M115.61,128.33l-14.44,25.02c-4.85,8.41-16.99,8.41-21.84,0l-28.94-50.13h50.72l14.5,25.11Z"/>
  </g>
  <g>
    <path class="cls-2" d="M249.52,49.05v5.51h27.01v17.64h-27.01v73.12h-20.58V49.05c0-23.15,14.7-34.73,33.25-34.73,8.27,0,15.62,2.39,23.15,7.72l-7.9,14.51c-4.96-3.13-8.64-4.6-13.6-4.6-8.45,0-14.33,5.14-14.33,17.09Z"/>
    <path class="cls-2" d="M351.46,60.63l-9.19,16.72c-5.14-3.49-9.74-4.96-15.25-4.96-14.7,0-24.07,10.84-24.07,28.66v44.28h-20.58V54.57h18.37l.18,13.96c7.17-11.02,16.17-15.8,27.56-15.8,8.82,0,17.46,2.94,22.97,7.9Z"/>
    <path class="cls-2" d="M353.3,28.48c0-7.53,5.51-12.86,13.05-12.86s13.41,5.33,13.41,12.86-5.51,12.49-13.41,12.49-13.05-5.33-13.05-12.49ZM356.05,54.57h20.58v90.76h-20.58V54.57Z"/>
    <path class="cls-2" d="M386.35,99.95c0-28.11,19.47-47.4,48.32-47.4,13.23,0,24.62,4.59,34.36,13.96l-12.49,13.41c-5.51-5.51-13.41-8.64-21.49-8.64-16.54,0-28.11,11.76-28.11,28.66s11.39,28.66,28.11,28.66c8.82,0,16.9-3.31,22.41-9.37l12.68,13.78c-10.1,9.74-21.31,14.33-35.28,14.33-29.4,0-48.5-18.74-48.5-47.4Z"/>
    <path class="cls-2" d="M528.91,142.21c-6.98,3.12-12.86,4.41-20.39,4.41-18.74,0-29.76-10.84-29.76-32.52V30.86l20.39-2.2v25.91h26.09v17.45h-26.09v42.08c0,9.18,4.23,14.33,12.68,14.33,3.67,0,7.9-1.1,11.39-2.76l5.7,16.54Z"/>
    <path class="cls-2" d="M532,28.48c0-7.53,5.51-12.86,13.04-12.86,7.9,0,13.41,5.33,13.41,12.86s-5.51,12.49-13.41,12.49-13.04-5.33-13.04-12.49ZM534.75,54.57h20.58v90.76h-20.58V54.57Z"/>
    <path class="cls-2" d="M565.05,99.95c0-27.19,18.93-47.4,48.51-47.4s48.32,20.21,48.32,47.4-18.93,47.4-48.32,47.4-48.51-20.21-48.51-47.4ZM641.3,99.95c0-15.8-10.84-28.66-27.74-28.66s-27.93,12.86-27.93,28.66,10.84,28.66,27.93,28.66,27.74-12.86,27.74-28.66Z"/>
    <path class="cls-2" d="M761.04,95.17v50.16h-20.58v-48.87c0-15.99-8.27-25.17-22.05-25.17-15.06,0-25.54,11.02-25.54,26.27v47.77h-20.58V54.57h18.38l.19,11.94c7.72-9.18,18.74-13.78,31.42-13.78,23.34,0,38.77,16.54,38.77,42.44Z"/>
  </g>
</svg>