<svg width="800" height="300" xmlns="http://www.w3.org/2000/svg">
  <!-- Background -->
  <rect width="800" height="300" rx="12" fill="white" stroke="#e5e7eb" stroke-width="1"/>

  <!-- Title -->
  <text x="24" y="32" font-family="system-ui, -apple-system, sans-serif" font-size="13" font-weight="600" fill="#0A054B">Performance Trends (30 Days)</text>

  <!-- Y-axis labels -->
  <g transform="translate(24, 60)">
    <text x="0" y="10" font-family="system-ui, -apple-system, sans-serif" font-size="11" fill="#64748b">100</text>
    <text x="0" y="60" font-family="system-ui, -apple-system, sans-serif" font-size="11" fill="#64748b">75</text>
    <text x="0" y="110" font-family="system-ui, -apple-system, sans-serif" font-size="11" fill="#64748b">50</text>
    <text x="0" y="160" font-family="system-ui, -apple-system, sans-serif" font-size="11" fill="#64748b">25</text>
    <text x="0" y="210" font-family="system-ui, -apple-system, sans-serif" font-size="11" fill="#64748b">0</text>
  </g>

  <!-- Grid lines -->
  <g transform="translate(60, 60)">
    <line x1="0" y1="0" x2="700" y2="0" stroke="#f3f4f6" stroke-width="1"/>
    <line x1="0" y1="50" x2="700" y2="50" stroke="#f3f4f6" stroke-width="1"/>
    <line x1="0" y1="100" x2="700" y2="100" stroke="#f3f4f6" stroke-width="1"/>
    <line x1="0" y1="150" x2="700" y2="150" stroke="#f3f4f6" stroke-width="1"/>
    <line x1="0" y1="200" x2="700" y2="200" stroke="#f3f4f6" stroke-width="1"/>
  </g>

  <!-- Chart area with trend lines -->
  <g transform="translate(60, 60)">
    <!-- Visibility - Cyan -->
    <polyline points="0,100 87.5,96 175,90 262.5,84 350,80 437.5,76 525,70 612.5,64 700,60"
      fill="none" stroke="hsl(188 94% 43%)" stroke-width="2.5"/>

    <!-- Sentiment - Purple -->
    <polyline points="0,160 87.5,156 175,150 262.5,146 350,140 437.5,136 525,130 612.5,126 700,120"
      fill="none" stroke="hsl(262 83% 58%)" stroke-width="2.5"/>

    <!-- Authority - Teal -->
    <polyline points="0,200 87.5,190 175,180 262.5,176 350,170 437.5,166 525,160 612.5,156 700,150"
      fill="none" stroke="hsl(173 58% 39%)" stroke-width="2.5"/>

    <!-- Purchase Intent - Blue -->
    <polyline points="0,220 87.5,216 175,210 262.5,206 350,200 437.5,196 525,190 612.5,186 700,180"
      fill="none" stroke="hsl(217 91% 60%)" stroke-width="2.5"/>
  </g>

  <!-- X-axis labels -->
  <g transform="translate(60, 270)">
    <text x="0" y="0" font-family="system-ui, -apple-system, sans-serif" font-size="11" fill="#64748b">Day 1</text>
    <text x="350" y="0" text-anchor="middle" font-family="system-ui, -apple-system, sans-serif" font-size="11" fill="#64748b">Day 15</text>
    <text x="700" y="0" text-anchor="end" font-family="system-ui, -apple-system, sans-serif" font-size="11" fill="#64748b">Day 30</text>
  </g>

  <!-- Legend -->
  <g transform="translate(200, 285)">
    <circle cx="0" cy="-3" r="6" fill="hsl(188 94% 43%)"/>
    <text x="12" y="0" font-family="system-ui, -apple-system, sans-serif" font-size="11" fill="#64748b">Visibility</text>

    <circle cx="100" cy="-3" r="6" fill="hsl(262 83% 58%)"/>
    <text x="112" y="0" font-family="system-ui, -apple-system, sans-serif" font-size="11" fill="#64748b">Sentiment</text>

    <circle cx="200" cy="-3" r="6" fill="hsl(173 58% 39%)"/>
    <text x="212" y="0" font-family="system-ui, -apple-system, sans-serif" font-size="11" fill="#64748b">Authority</text>

    <circle cx="300" cy="-3" r="6" fill="hsl(217 91% 60%)"/>
    <text x="312" y="0" font-family="system-ui, -apple-system, sans-serif" font-size="11" fill="#64748b">Purchase Intent</text>
  </g>
</svg>
